<svg xmlns="http://www.w3.org/2000/svg" width="267.569" height="77.782" viewBox="0 0 267.569 77.782">
  <g id="Grupo_3407" data-name="Grupo 3407" transform="translate(0 0)">
    <path id="Caminho_7310" data-name="Caminho 7310" d="M-721.257-457.983v76.649h-15.964v-71.122Z" transform="translate(839.68 457.983)" fill="#fff"/>
    <path id="Caminho_7311" data-name="Caminho 7311" d="M-695.728-416.508a28.976,28.976,0,0,0-6.755.921,36.2,36.2,0,0,0-6.651,2.252l-4.3-12.28a37.854,37.854,0,0,1,9.313-3.224,47.48,47.48,0,0,1,10.643-1.381,23.971,23.971,0,0,1,11.052,2.456,17.731,17.731,0,0,1,7.419,6.908,19.759,19.759,0,0,1,2.609,10.182v31.622h-8.9l-3.786-5.219q-5.526,6.346-12.178,6.344-9.007,0-13.611-4.452t-4.605-12.126q0-7.572,5.117-11.36t14.019-3.786h7.777a7.309,7.309,0,0,0-2.1-5.066A7.077,7.077,0,0,0-695.728-416.508Zm-.512,16.476a5.709,5.709,0,0,0-4.145,1.535,5.181,5.181,0,0,0-1.586,3.889,4.326,4.326,0,0,0,1.331,3.172,4.7,4.7,0,0,0,3.48,1.33q4.5,0,8.7-3.888v-6.038Z" transform="translate(837.895 455.703)" fill="#fff"/>
    <path id="Caminho_7312" data-name="Caminho 7312" d="M-639.626-413.761a32.026,32.026,0,0,0-8.341,5.168v29.677h-16.066v-49.53h8.187l4.5,7.061a44.023,44.023,0,0,1,8.289-4.963,20.37,20.37,0,0,1,8.493-2.2l3.173,12.792A21.341,21.341,0,0,0-639.626-413.761Z" transform="translate(833.669 455.566)" fill="#fff"/>
    <path id="Caminho_7313" data-name="Caminho 7313" d="M-616.594-430.074a27.733,27.733,0,0,1,9.059-1.353,24.324,24.324,0,0,1,9.869,1.848,14.833,14.833,0,0,1,6.444,5.137,13.006,13.006,0,0,1,2.254,7.526,16.829,16.829,0,0,1-3.245,9.6A56.866,56.866,0,0,1-602.4-396.726l-15.322,12.978,30.824.09.722,4.417h-38.846v-4.507l19.107-16.493a54.871,54.871,0,0,0,8.7-8.788,12.893,12.893,0,0,0,2.387-7.617,8.879,8.879,0,0,0-3.425-7.436q-3.426-2.657-9.373-2.659a19.314,19.314,0,0,0-7.3,1.217,81.951,81.951,0,0,0-7.6,3.833l-1.319-5.05A39.06,39.06,0,0,1-616.594-430.074Z" transform="translate(830.465 455.802)" fill="#fff"/>
    <path id="Caminho_7314" data-name="Caminho 7314" d="M-559.063-430.15v51.013h-5.679V-423.21l-11.266,4.6-2.343-4.6,15.5-6.94Z" transform="translate(826.632 455.697)" fill="#fff"/>
    <path id="Caminho_7315" data-name="Caminho 7315" d="M-829.6-377.921a45.935,45.935,0,0,1-9.93-1.331,23.053,23.053,0,0,1-9.315-4.095l4.709-10.442a36.846,36.846,0,0,0,7.011,2.509,27.228,27.228,0,0,0,6.5.972,10.324,10.324,0,0,0,4.351-.87,2.682,2.682,0,0,0,1.893-2.406,3.328,3.328,0,0,0-1.792-2.559,19.542,19.542,0,0,0-4.965-2.251,41.4,41.4,0,0,1-12.284-6.347,11.736,11.736,0,0,1-4.811-9.622,13.858,13.858,0,0,1,5.528-11.618q5.528-4.247,15.15-4.248a38.393,38.393,0,0,1,9.059,1.28,24.326,24.326,0,0,1,8.753,3.94l-4.607,10.441a32.036,32.036,0,0,0-12.693-3.173,7.459,7.459,0,0,0-3.89.922,2.708,2.708,0,0,0-1.536,2.355q0,1.639,6.449,3.889,17.094,5.938,17.1,16.583,0,7.678-5.272,11.875T-829.6-377.921Z" transform="translate(848.848 455.704)" fill="#fff"/>
    <g id="Grupo_3228" data-name="Grupo 3228" transform="translate(43.702 25.499)">
      <path id="Caminho_7316" data-name="Caminho 7316" d="M-749.915-418.041a22.655,22.655,0,0,0-9.62-9.057,30.989,30.989,0,0,0-13.591-3.1v11.451a2.394,2.394,0,0,1,1.577,2.25v3.44A13.717,13.717,0,0,1-760.275-400.4h-27.336a13.717,13.717,0,0,1,11.275-12.665v-3.44a2.394,2.394,0,0,1,1.575-2.25v-11.444a30.247,30.247,0,0,0-13.223,3.148,23.6,23.6,0,0,0-9.721,9.107,26.709,26.709,0,0,0-3.531,13.918,27.683,27.683,0,0,0,3.428,14.173,22.127,22.127,0,0,0,9.568,8.9,31.878,31.878,0,0,0,14.225,3.019,31.382,31.382,0,0,0,14.224-3.122A23.4,23.4,0,0,0-750.018-390a26.171,26.171,0,0,0,3.531-13.815A27.982,27.982,0,0,0-749.915-418.041Zm-24.028,23.028a8.061,8.061,0,0,1-6.806-3.748h13.612A8.062,8.062,0,0,1-773.943-395.014Z" transform="translate(801.236 430.202)" fill="#fff"/>
    </g>
  </g>
</svg>
